<svg xmlns:xlink="http://www.w3.org/1999/xlink" xmlns="http://www.w3.org/2000/svg" version="1.1" width="1150" height="410">
	<defs><clipPath id="highcharts-5"><rect rx="0" ry="0" fill="none" x="0" y="0" width="963" height="330" stroke-width="0.000001"></rect></clipPath></defs><rect rx="5" ry="5" fill="#FFFFFF" x="0" y="0" width="1150" height="410" stroke-width="0.000001" stroke="#4572A7"></rect><path d="M 57 338.5 L 1020 338.5" fill="none" stroke="#808080" stroke-width="1"></path><text x="555" y="25" style="font-family:'lucida grande', 'lucida sans unicode', verdana, arial, helvetica, sans-serif;font-size:16px;color:#3e576f;fill:#3e576f;" text-anchor="middle" class="highcharts-title" ><tspan x="555">Monthly Average Temperature</tspan></text><text x="555" y="40" style="font-family:'lucida grande', 'lucida sans unicode', verdana, arial, helvetica, sans-serif;font-size:12px;color:#6d869f;fill:#6d869f;" text-anchor="middle" class="highcharts-subtitle" ><tspan x="555">Source: WorldClimate.com</tspan></text><g class="highcharts-grid" ></g><g class="highcharts-grid" ><path d="M 57 385.5 L 1020 385.5" fill="none" stroke="#C0C0C0" stroke-width="1"></path><path d="M 57 338.5 L 1020 338.5" fill="none" stroke="#C0C0C0" stroke-width="1"></path><path d="M 57 291.5 L 1020 291.5" fill="none" stroke="#C0C0C0" stroke-width="1"></path><path d="M 57 244.5 L 1020 244.5" fill="none" stroke="#C0C0C0" stroke-width="1"></path><path d="M 57 196.5 L 1020 196.5" fill="none" stroke="#C0C0C0" stroke-width="1"></path><path d="M 57 149.5 L 1020 149.5" fill="none" stroke="#C0C0C0" stroke-width="1"></path><path d="M 57 102.5 L 1020 102.5" fill="none" stroke="#C0C0C0" stroke-width="1"></path><path d="M 57 55.5 L 1020 55.5" fill="none" stroke="#C0C0C0" stroke-width="1"></path></g><g class="highcharts-series-group" ><g class="highcharts-series" clip-path="url(#highcharts-5)" visibility="visible" transform="translate(57,55)"><path d="M 40.125 216.85714285714286 L 120.375 217.8 L 200.625 193.28571428571428 L 280.875 146.14285714285714 L 361.125 111.25714285714287 L 441.375 80.14285714285714 L 521.625 45.25714285714287 L 601.875 33 L 682.125 63.17142857142858 L 762.375 110.31428571428569 L 842.625 151.8 L 922.875 192.34285714285716" fill="none" stroke="rgb(0, 0, 0)" stroke-width="5"  stroke-opacity="0.05" transform="translate(1,1)"></path><path d="M 40.125 216.85714285714286 L 120.375 217.8 L 200.625 193.28571428571428 L 280.875 146.14285714285714 L 361.125 111.25714285714287 L 441.375 80.14285714285714 L 521.625 45.25714285714287 L 601.875 33 L 682.125 63.17142857142858 L 762.375 110.31428571428569 L 842.625 151.8 L 922.875 192.34285714285716" fill="none" stroke="rgb(0, 0, 0)" stroke-width="3"  stroke-opacity="0.1" transform="translate(1,1)"></path><path d="M 40.125 216.85714285714286 L 120.375 217.8 L 200.625 193.28571428571428 L 280.875 146.14285714285714 L 361.125 111.25714285714287 L 441.375 80.14285714285714 L 521.625 45.25714285714287 L 601.875 33 L 682.125 63.17142857142858 L 762.375 110.31428571428569 L 842.625 151.8 L 922.875 192.34285714285716" fill="none" stroke="rgb(0, 0, 0)" stroke-width="1"  stroke-opacity="0.15000000000000002" transform="translate(1,1)"></path><path d="M 40.125 216.85714285714286 L 120.375 217.8 L 200.625 193.28571428571428 L 280.875 146.14285714285714 L 361.125 111.25714285714287 L 441.375 80.14285714285714 L 521.625 45.25714285714287 L 601.875 33 L 682.125 63.17142857142858 L 762.375 110.31428571428569 L 842.625 151.8 L 922.875 192.34285714285716" fill="none" stroke="#4572A7" stroke-width="2"></path><circle cx="922.875" cy="192.34285714285716" r="4" stroke="#FFFFFF" stroke-width="0.000001" fill="#4572A7"></circle><circle cx="842.625" cy="151.8" r="4" stroke="#FFFFFF" stroke-width="0.000001" fill="#4572A7"></circle><circle cx="762.375" cy="110.31428571428569" r="4" stroke="#FFFFFF" stroke-width="0.000001" fill="#4572A7"></circle><circle cx="682.125" cy="63.17142857142858" r="4" stroke="#FFFFFF" stroke-width="0.000001" fill="#4572A7"></circle><circle cx="601.875" cy="33" r="4" stroke="#FFFFFF" stroke-width="0.000001" fill="#4572A7"></circle><circle cx="521.625" cy="45.25714285714287" r="4" stroke="#FFFFFF" stroke-width="0.000001" fill="#4572A7"></circle><circle cx="441.375" cy="80.14285714285714" r="4" stroke="#FFFFFF" stroke-width="0.000001" fill="#4572A7"></circle><circle cx="361.125" cy="111.25714285714287" r="4" stroke="#FFFFFF" stroke-width="0.000001" fill="#4572A7"></circle><circle cx="280.875" cy="146.14285714285714" r="4" stroke="#FFFFFF" stroke-width="0.000001" fill="#4572A7"></circle><circle cx="200.625" cy="193.28571428571428" r="4" stroke="#FFFFFF" stroke-width="0.000001" fill="#4572A7"></circle><circle cx="120.375" cy="217.8" r="4" stroke="#FFFFFF" stroke-width="0.000001" fill="#4572A7"></circle><circle cx="40.125" cy="216.85714285714286" r="4" stroke="#FFFFFF" stroke-width="0.000001" fill="#4572A7"></circle></g><g class="highcharts-series" clip-path="url(#highcharts-5)" visibility="visible" transform="translate(57,55)"><path d="M 40.125 284.74285714285713 L 120.375 275.3142857142857 L 200.625 229.1142857142857 L 280.875 176.31428571428572 L 361.125 122.57142857142856 L 441.375 75.42857142857142 L 521.625 49.02857142857141 L 601.875 55.62857142857143 L 682.125 93.34285714285713 L 762.375 149.91428571428568 L 842.625 201.77142857142857 L 922.875 259.2857142857143" fill="none" stroke="rgb(0, 0, 0)" stroke-width="5"  stroke-opacity="0.05" transform="translate(1,1)"></path><path d="M 40.125 284.74285714285713 L 120.375 275.3142857142857 L 200.625 229.1142857142857 L 280.875 176.31428571428572 L 361.125 122.57142857142856 L 441.375 75.42857142857142 L 521.625 49.02857142857141 L 601.875 55.62857142857143 L 682.125 93.34285714285713 L 762.375 149.91428571428568 L 842.625 201.77142857142857 L 922.875 259.2857142857143" fill="none" stroke="rgb(0, 0, 0)" stroke-width="3"  stroke-opacity="0.1" transform="translate(1,1)"></path><path d="M 40.125 284.74285714285713 L 120.375 275.3142857142857 L 200.625 229.1142857142857 L 280.875 176.31428571428572 L 361.125 122.57142857142856 L 441.375 75.42857142857142 L 521.625 49.02857142857141 L 601.875 55.62857142857143 L 682.125 93.34285714285713 L 762.375 149.91428571428568 L 842.625 201.77142857142857 L 922.875 259.2857142857143" fill="none" stroke="rgb(0, 0, 0)" stroke-width="1"  stroke-opacity="0.15000000000000002" transform="translate(1,1)"></path><path d="M 40.125 284.74285714285713 L 120.375 275.3142857142857 L 200.625 229.1142857142857 L 280.875 176.31428571428572 L 361.125 122.57142857142856 L 441.375 75.42857142857142 L 521.625 49.02857142857141 L 601.875 55.62857142857143 L 682.125 93.34285714285713 L 762.375 149.91428571428568 L 842.625 201.77142857142857 L 922.875 259.2857142857143" fill="none" stroke="#AA4643" stroke-width="2"></path><path d="M 923 255.5 L 927 259.5 923 263.5 919 259.5 Z" fill="#AA4643" stroke="#FFFFFF" stroke-width="0.000001"></path><path d="M 842.5 198 L 846.5 202 842.5 206 838.5 202 Z" fill="#AA4643" stroke="#FFFFFF" stroke-width="0.000001"></path><path d="M 762.5 146 L 766.5 150 762.5 154 758.5 150 Z" fill="#AA4643" stroke="#FFFFFF" stroke-width="0.000001"></path><path d="M 682 89.5 L 686 93.5 682 97.5 678 93.5 Z" fill="#AA4643" stroke="#FFFFFF" stroke-width="0.000001"></path><path d="M 602 51.5 L 606 55.5 602 59.5 598 55.5 Z" fill="#AA4643" stroke="#FFFFFF" stroke-width="0.000001"></path><path d="M 521.5 45 L 525.5 49 521.5 53 517.5 49 Z" fill="#AA4643" stroke="#FFFFFF" stroke-width="0.000001"></path><path d="M 441.5 71.5 L 445.5 75.5 441.5 79.5 437.5 75.5 Z" fill="#AA4643" stroke="#FFFFFF" stroke-width="0.000001"></path><path d="M 361 118.5 L 365 122.5 361 126.5 357 122.5 Z" fill="#AA4643" stroke="#FFFFFF" stroke-width="0.000001"></path><path d="M 281 172.5 L 285 176.5 281 180.5 277 176.5 Z" fill="#AA4643" stroke="#FFFFFF" stroke-width="0.000001"></path><path d="M 200.5 225 L 204.5 229 200.5 233 196.5 229 Z" fill="#AA4643" stroke="#FFFFFF" stroke-width="0.000001"></path><path d="M 120.5 271.5 L 124.5 275.5 120.5 279.5 116.5 275.5 Z" fill="#AA4643" stroke="#FFFFFF" stroke-width="0.000001"></path><path d="M 40 280.5 L 44 284.5 40 288.5 36 284.5 Z" fill="#AA4643" stroke="#FFFFFF" stroke-width="0.000001"></path></g><g class="highcharts-series" clip-path="url(#highcharts-5)" visibility="visible" transform="translate(57,55)"><path d="M 40.125 291.34285714285716 L 120.375 277.2 L 200.625 249.85714285714286 L 280.875 203.65714285714284 L 361.125 155.57142857142856 L 441.375 122.57142857142856 L 521.625 107.48571428571427 L 601.875 114.08571428571429 L 682.125 148.0285714285714 L 762.375 198 L 842.625 246.0857142857143 L 922.875 273.42857142857144" fill="none" stroke="rgb(0, 0, 0)" stroke-width="5"  stroke-opacity="0.05" transform="translate(1,1)"></path><path d="M 40.125 291.34285714285716 L 120.375 277.2 L 200.625 249.85714285714286 L 280.875 203.65714285714284 L 361.125 155.57142857142856 L 441.375 122.57142857142856 L 521.625 107.48571428571427 L 601.875 114.08571428571429 L 682.125 148.0285714285714 L 762.375 198 L 842.625 246.0857142857143 L 922.875 273.42857142857144" fill="none" stroke="rgb(0, 0, 0)" stroke-width="3"  stroke-opacity="0.1" transform="translate(1,1)"></path><path d="M 40.125 291.34285714285716 L 120.375 277.2 L 200.625 249.85714285714286 L 280.875 203.65714285714284 L 361.125 155.57142857142856 L 441.375 122.57142857142856 L 521.625 107.48571428571427 L 601.875 114.08571428571429 L 682.125 148.0285714285714 L 762.375 198 L 842.625 246.0857142857143 L 922.875 273.42857142857144" fill="none" stroke="rgb(0, 0, 0)" stroke-width="1"  stroke-opacity="0.15000000000000002" transform="translate(1,1)"></path><path d="M 40.125 291.34285714285716 L 120.375 277.2 L 200.625 249.85714285714286 L 280.875 203.65714285714284 L 361.125 155.57142857142856 L 441.375 122.57142857142856 L 521.625 107.48571428571427 L 601.875 114.08571428571429 L 682.125 148.0285714285714 L 762.375 198 L 842.625 246.0857142857143 L 922.875 273.42857142857144" fill="none" stroke="#89A54E" stroke-width="2"></path><path d="M 920.172 270.672 L 925.828 270.672 925.828 276.328 920.172 276.328 Z" fill="#89A54E" stroke="#FFFFFF" stroke-width="0.000001"></path><path d="M 839.672 243.172 L 845.328 243.172 845.328 248.828 839.672 248.828 Z" fill="#89A54E" stroke="#FFFFFF" stroke-width="0.000001"></path><path d="M 759.672 195.172 L 765.328 195.172 765.328 200.828 759.672 200.828 Z" fill="#89A54E" stroke="#FFFFFF" stroke-width="0.000001"></path><path d="M 679.172 145.172 L 684.828 145.172 684.828 150.828 679.172 150.828 Z" fill="#89A54E" stroke="#FFFFFF" stroke-width="0.000001"></path><path d="M 599.172 111.172 L 604.828 111.172 604.828 116.828 599.172 116.828 Z" fill="#89A54E" stroke="#FFFFFF" stroke-width="0.000001"></path><path d="M 518.672 104.672 L 524.328 104.672 524.328 110.328 518.672 110.328 Z" fill="#89A54E" stroke="#FFFFFF" stroke-width="0.000001"></path><path d="M 438.672 119.672 L 444.328 119.672 444.328 125.328 438.672 125.328 Z" fill="#89A54E" stroke="#FFFFFF" stroke-width="0.000001"></path><path d="M 358.172 152.672 L 363.828 152.672 363.828 158.328 358.172 158.328 Z" fill="#89A54E" stroke="#FFFFFF" stroke-width="0.000001"></path><path d="M 278.172 200.672 L 283.828 200.672 283.828 206.328 278.172 206.328 Z" fill="#89A54E" stroke="#FFFFFF" stroke-width="0.000001"></path><path d="M 197.672 247.172 L 203.328 247.172 203.328 252.828 197.672 252.828 Z" fill="#89A54E" stroke="#FFFFFF" stroke-width="0.000001"></path><path d="M 117.672 274.172 L 123.328 274.172 123.328 279.828 117.672 279.828 Z" fill="#89A54E" stroke="#FFFFFF" stroke-width="0.000001"></path><path d="M 37.172 288.672 L 42.828 288.672 42.828 294.328 37.172 294.328 Z" fill="#89A54E" stroke="#FFFFFF" stroke-width="0.000001"></path></g><g class="highcharts-series" clip-path="url(#highcharts-5)" visibility="visible" transform="translate(57,55)"><path d="M 40.125 246.0857142857143 L 120.375 243.25714285714287 L 200.625 229.1142857142857 L 280.875 202.71428571428572 L 361.125 170.65714285714287 L 441.375 139.54285714285714 L 521.625 122.57142857142856 L 601.875 126.34285714285713 L 682.125 148.97142857142856 L 762.375 185.74285714285713 L 842.625 220.62857142857143 L 922.875 237.6" fill="none" stroke="rgb(0, 0, 0)" stroke-width="5"  stroke-opacity="0.05" transform="translate(1,1)"></path><path d="M 40.125 246.0857142857143 L 120.375 243.25714285714287 L 200.625 229.1142857142857 L 280.875 202.71428571428572 L 361.125 170.65714285714287 L 441.375 139.54285714285714 L 521.625 122.57142857142856 L 601.875 126.34285714285713 L 682.125 148.97142857142856 L 762.375 185.74285714285713 L 842.625 220.62857142857143 L 922.875 237.6" fill="none" stroke="rgb(0, 0, 0)" stroke-width="3"  stroke-opacity="0.1" transform="translate(1,1)"></path><path d="M 40.125 246.0857142857143 L 120.375 243.25714285714287 L 200.625 229.1142857142857 L 280.875 202.71428571428572 L 361.125 170.65714285714287 L 441.375 139.54285714285714 L 521.625 122.57142857142856 L 601.875 126.34285714285713 L 682.125 148.97142857142856 L 762.375 185.74285714285713 L 842.625 220.62857142857143 L 922.875 237.6" fill="none" stroke="rgb(0, 0, 0)" stroke-width="1"  stroke-opacity="0.15000000000000002" transform="translate(1,1)"></path><path d="M 40.125 246.0857142857143 L 120.375 243.25714285714287 L 200.625 229.1142857142857 L 280.875 202.71428571428572 L 361.125 170.65714285714287 L 441.375 139.54285714285714 L 521.625 122.57142857142856 L 601.875 126.34285714285713 L 682.125 148.97142857142856 L 762.375 185.74285714285713 L 842.625 220.62857142857143 L 922.875 237.6" fill="none" stroke="#80699B" stroke-width="2"></path><path d="M 923 232.18 L 927 240.18 919 240.18 Z" fill="#80699B" stroke="#FFFFFF" stroke-width="0.000001"></path><path d="M 842.5 215.18 L 846.5 223.18 838.5 223.18 Z" fill="#80699B" stroke="#FFFFFF" stroke-width="0.000001"></path><path d="M 762.5 180.18 L 766.5 188.18 758.5 188.18 Z" fill="#80699B" stroke="#FFFFFF" stroke-width="0.000001"></path><path d="M 682 143.68 L 686 151.68 678 151.68 Z" fill="#80699B" stroke="#FFFFFF" stroke-width="0.000001"></path><path d="M 602 121.18 L 606 129.18 598 129.18 Z" fill="#80699B" stroke="#FFFFFF" stroke-width="0.000001"></path><path d="M 521.5 117.18 L 525.5 125.18 517.5 125.18 Z" fill="#80699B" stroke="#FFFFFF" stroke-width="0.000001"></path><path d="M 441.5 134.18 L 445.5 142.18 437.5 142.18 Z" fill="#80699B" stroke="#FFFFFF" stroke-width="0.000001"></path><path d="M 361 165.18 L 365 173.18 357 173.18 Z" fill="#80699B" stroke="#FFFFFF" stroke-width="0.000001"></path><path d="M 281 197.18 L 285 205.18 277 205.18 Z" fill="#80699B" stroke="#FFFFFF" stroke-width="0.000001"></path><path d="M 200.5 223.68 L 204.5 231.68 196.5 231.68 Z" fill="#80699B" stroke="#FFFFFF" stroke-width="0.000001"></path><path d="M 120.5 238.18 L 124.5 246.18 116.5 246.18 Z" fill="#80699B" stroke="#FFFFFF" stroke-width="0.000001"></path><path d="M 40 240.68 L 44 248.68 36 248.68 Z" fill="#80699B" stroke="#FFFFFF" stroke-width="0.000001"></path></g></g><g class="highcharts-legend"  transform="translate(1033,110)"><text x="30" y="18" style="font-family:'lucida grande', 'lucida sans unicode', verdana, arial, helvetica, sans-serif;font-size:12px;cursor:pointer;color:#3e576f;fill:#3e576f;" ><tspan x="30">Tokyo</tspan></text><path d="M -21 0 L -5 0" fill="none" stroke-width="2"  stroke="#4572A7" transform="translate(30,14)"></path><text x="30" y="33" style="font-family:'lucida grande', 'lucida sans unicode', verdana, arial, helvetica, sans-serif;font-size:12px;cursor:pointer;color:#3e576f;fill:#3e576f;" ><tspan x="30">New York</tspan></text><path d="M -21 0 L -5 0" fill="none" stroke-width="2"  stroke="#AA4643" transform="translate(30,29)"></path><text x="30" y="48" style="font-family:'lucida grande', 'lucida sans unicode', verdana, arial, helvetica, sans-serif;font-size:12px;cursor:pointer;color:#3e576f;fill:#3e576f;" ><tspan x="30">Berlin</tspan></text><path d="M -21 0 L -5 0" fill="none" stroke-width="2"  stroke="#89A54E" transform="translate(30,44)"></path><text x="30" y="63" style="font-family:'lucida grande', 'lucida sans unicode', verdana, arial, helvetica, sans-serif;font-size:12px;cursor:pointer;color:#3e576f;fill:#3e576f;" ><tspan x="30">London</tspan></text><path d="M -21 0 L -5 0" fill="none" stroke-width="2"  stroke="#80699B" transform="translate(30,59)"></path><circle cx="17" cy="14" r="4"  stroke="#FFFFFF" stroke-width="0.000001" fill="#4572A7"></circle><path d="M 17 25 L 21 29 17 33 13 29 Z" fill="#AA4643"  stroke="#FFFFFF" stroke-width="0.000001"></path><path d="M 14.172 41.172 L 19.828 41.172 19.828 46.828 14.172 46.828 Z" fill="#89A54E"  stroke="#FFFFFF" stroke-width="0.000001"></path><path d="M 17 53.68 L 21 61.68 13 61.68 Z" fill="#80699B"  stroke="#FFFFFF" stroke-width="0.000001"></path></g><g class="highcharts-axis" ><text x="97.125" y="399" style="font-family:'lucida grande', 'lucida sans unicode', verdana, arial, helvetica, sans-serif;font-size:11px;width:60px;color:#666;line-height:14px;fill:#666;" text-anchor="middle"><tspan x="97.125">Jan</tspan></text><text x="177.375" y="399" style="font-family:'lucida grande', 'lucida sans unicode', verdana, arial, helvetica, sans-serif;font-size:11px;width:60px;color:#666;line-height:14px;fill:#666;" text-anchor="middle"><tspan x="177.375">Feb</tspan></text><text x="257.625" y="399" style="font-family:'lucida grande', 'lucida sans unicode', verdana, arial, helvetica, sans-serif;font-size:11px;width:60px;color:#666;line-height:14px;fill:#666;" text-anchor="middle"><tspan x="257.625">Mar</tspan></text><text x="337.875" y="399" style="font-family:'lucida grande', 'lucida sans unicode', verdana, arial, helvetica, sans-serif;font-size:11px;width:60px;color:#666;line-height:14px;fill:#666;" text-anchor="middle"><tspan x="337.875">Apr</tspan></text><text x="418.125" y="399" style="font-family:'lucida grande', 'lucida sans unicode', verdana, arial, helvetica, sans-serif;font-size:11px;width:60px;color:#666;line-height:14px;fill:#666;" text-anchor="middle"><tspan x="418.125">May</tspan></text><text x="498.375" y="399" style="font-family:'lucida grande', 'lucida sans unicode', verdana, arial, helvetica, sans-serif;font-size:11px;width:60px;color:#666;line-height:14px;fill:#666;" text-anchor="middle"><tspan x="498.375">Jun</tspan></text><text x="578.625" y="399" style="font-family:'lucida grande', 'lucida sans unicode', verdana, arial, helvetica, sans-serif;font-size:11px;width:60px;color:#666;line-height:14px;fill:#666;" text-anchor="middle"><tspan x="578.625">Jul</tspan></text><text x="658.875" y="399" style="font-family:'lucida grande', 'lucida sans unicode', verdana, arial, helvetica, sans-serif;font-size:11px;width:60px;color:#666;line-height:14px;fill:#666;" text-anchor="middle"><tspan x="658.875">Aug</tspan></text><text x="739.125" y="399" style="font-family:'lucida grande', 'lucida sans unicode', verdana, arial, helvetica, sans-serif;font-size:11px;width:60px;color:#666;line-height:14px;fill:#666;" text-anchor="middle"><tspan x="739.125">Sep</tspan></text><text x="819.375" y="399" style="font-family:'lucida grande', 'lucida sans unicode', verdana, arial, helvetica, sans-serif;font-size:11px;width:60px;color:#666;line-height:14px;fill:#666;" text-anchor="middle"><tspan x="819.375">Oct</tspan></text><text x="899.625" y="399" style="font-family:'lucida grande', 'lucida sans unicode', verdana, arial, helvetica, sans-serif;font-size:11px;width:60px;color:#666;line-height:14px;fill:#666;" text-anchor="middle"><tspan x="899.625">Nov</tspan></text><text x="979.875" y="399" style="font-family:'lucida grande', 'lucida sans unicode', verdana, arial, helvetica, sans-serif;font-size:11px;width:60px;color:#666;line-height:14px;fill:#666;" text-anchor="middle"><tspan x="979.875">Dec</tspan></text><path d="M 137.5 385 L 137.5 390" fill="none" stroke="#C0D0E0" stroke-width="1"></path><path d="M 218.5 385 L 218.5 390" fill="none" stroke="#C0D0E0" stroke-width="1"></path><path d="M 298.5 385 L 298.5 390" fill="none" stroke="#C0D0E0" stroke-width="1"></path><path d="M 378.5 385 L 378.5 390" fill="none" stroke="#C0D0E0" stroke-width="1"></path><path d="M 458.5 385 L 458.5 390" fill="none" stroke="#C0D0E0" stroke-width="1"></path><path d="M 539.5 385 L 539.5 390" fill="none" stroke="#C0D0E0" stroke-width="1"></path><path d="M 619.5 385 L 619.5 390" fill="none" stroke="#C0D0E0" stroke-width="1"></path><path d="M 699.5 385 L 699.5 390" fill="none" stroke="#C0D0E0" stroke-width="1"></path><path d="M 779.5 385 L 779.5 390" fill="none" stroke="#C0D0E0" stroke-width="1"></path><path d="M 860.5 385 L 860.5 390" fill="none" stroke="#C0D0E0" stroke-width="1"></path><path d="M 940.5 385 L 940.5 390" fill="none" stroke="#C0D0E0" stroke-width="1"></path><path d="M 1020.5 385 L 1020.5 390" fill="none" stroke="#C0D0E0" stroke-width="1"></path></g><g class="highcharts-axis" ><text x="49" y="390.6" style="font-family:'lucida grande', 'lucida sans unicode', verdana, arial, helvetica, sans-serif;font-size:11px;width:462px;color:#666;line-height:14px;fill:#666;" text-anchor="end"><tspan x="49">-5</tspan></text><text x="49" y="343.45714285714286" style="font-family:'lucida grande', 'lucida sans unicode', verdana, arial, helvetica, sans-serif;font-size:11px;width:462px;color:#666;line-height:14px;fill:#666;" text-anchor="end"><tspan x="49">0</tspan></text><text x="49" y="296.31428571428575" style="font-family:'lucida grande', 'lucida sans unicode', verdana, arial, helvetica, sans-serif;font-size:11px;width:462px;color:#666;line-height:14px;fill:#666;" text-anchor="end"><tspan x="49">5</tspan></text><text x="49" y="249.17142857142855" style="font-family:'lucida grande', 'lucida sans unicode', verdana, arial, helvetica, sans-serif;font-size:11px;width:462px;color:#666;line-height:14px;fill:#666;" text-anchor="end"><tspan x="49">10</tspan></text><text x="49" y="202.0285714285714" style="font-family:'lucida grande', 'lucida sans unicode', verdana, arial, helvetica, sans-serif;font-size:11px;width:462px;color:#666;line-height:14px;fill:#666;" text-anchor="end"><tspan x="49">15</tspan></text><text x="49" y="154.88571428571427" style="font-family:'lucida grande', 'lucida sans unicode', verdana, arial, helvetica, sans-serif;font-size:11px;width:462px;color:#666;line-height:14px;fill:#666;" text-anchor="end"><tspan x="49">20</tspan></text><text x="49" y="107.7428571428571" style="font-family:'lucida grande', 'lucida sans unicode', verdana, arial, helvetica, sans-serif;font-size:11px;width:462px;color:#666;line-height:14px;fill:#666;" text-anchor="end"><tspan x="49">25</tspan></text><text x="49" y="60.6" style="font-family:'lucida grande', 'lucida sans unicode', verdana, arial, helvetica, sans-serif;font-size:11px;width:462px;color:#666;line-height:14px;fill:#666;" text-anchor="end"><tspan x="49">30</tspan></text></g><text x="25" y="220" style="font-family:'lucida grande', 'lucida sans unicode', verdana, arial, helvetica, sans-serif;font-size:12px;color:#6d869f;font-weight:bold;fill:#6d869f;"  transform="rotate(270 25 220)" text-anchor="middle"><tspan x="25">Temperature (°C)</tspan></text><path d="M 57 385.5 L 1020 385.5" fill="none" stroke="#C0D0E0" stroke-width="1" ></path><g class="highcharts-tooltip"  visibility="hidden"><rect rx="5" ry="5" fill="none" x="2" y="2" width="0" height="0" stroke-width="5" fill-opacity="0.85"  stroke="rgb(0, 0, 0)" stroke-opacity="0.05" transform="translate(1,1)"></rect><rect rx="5" ry="5" fill="none" x="2" y="2" width="0" height="0" stroke-width="3" fill-opacity="0.85"  stroke="rgb(0, 0, 0)" stroke-opacity="0.1" transform="translate(1,1)"></rect><rect rx="5" ry="5" fill="none" x="2" y="2" width="0" height="0" stroke-width="1" fill-opacity="0.85"  stroke="rgb(0, 0, 0)" stroke-opacity="0.15000000000000002" transform="translate(1,1)"></rect><rect rx="5" ry="5" fill="rgb(255,255,255)" x="2" y="2" width="0" height="0" stroke-width="2" fill-opacity="0.85"></rect><text x="2" y="14" style="font-family:'lucida grande', 'lucida sans unicode', verdana, arial, helvetica, sans-serif;font-size:12px;color:#333333;padding:0;white-space:nowrap;fill:#333333;" ><tspan x="2"> </tspan></text></g><text x="1140" y="405" style="font-family:'lucida grande', 'lucida sans unicode', verdana, arial, helvetica, sans-serif;font-size:10px;cursor:pointer;color:#909090;fill:#909090;" text-anchor="end" ><tspan x="1140">Highcharts.com</tspan></text><g class="highcharts-tracker"  transform="translate(57,55)"><path d="M 30.125 216.85714285714286 L 40.125 216.85714285714286 L 120.375 217.8 L 200.625 193.28571428571428 L 280.875 146.14285714285714 L 361.125 111.25714285714287 L 441.375 80.14285714285714 L 521.625 45.25714285714287 L 601.875 33 L 682.125 63.17142857142858 L 762.375 110.31428571428569 L 842.625 151.8 L 922.875 192.34285714285716 L 932.875 192.34285714285716" fill="none"  stroke-opacity="0.000001" stroke="rgb(192,192,192)" stroke-width="22" visibility="visible"  style=""></path><path d="M 30.125 284.74285714285713 L 40.125 284.74285714285713 L 120.375 275.3142857142857 L 200.625 229.1142857142857 L 280.875 176.31428571428572 L 361.125 122.57142857142856 L 441.375 75.42857142857142 L 521.625 49.02857142857141 L 601.875 55.62857142857143 L 682.125 93.34285714285713 L 762.375 149.91428571428568 L 842.625 201.77142857142857 L 922.875 259.2857142857143 L 932.875 259.2857142857143" fill="none"  stroke-opacity="0.000001" stroke="rgb(192,192,192)" stroke-width="22" visibility="visible"  style=""></path><path d="M 30.125 291.34285714285716 L 40.125 291.34285714285716 L 120.375 277.2 L 200.625 249.85714285714286 L 280.875 203.65714285714284 L 361.125 155.57142857142856 L 441.375 122.57142857142856 L 521.625 107.48571428571427 L 601.875 114.08571428571429 L 682.125 148.0285714285714 L 762.375 198 L 842.625 246.0857142857143 L 922.875 273.42857142857144 L 932.875 273.42857142857144" fill="none"  stroke-opacity="0.000001" stroke="rgb(192,192,192)" stroke-width="22" visibility="visible"  style=""></path><path d="M 30.125 246.0857142857143 L 40.125 246.0857142857143 L 120.375 243.25714285714287 L 200.625 229.1142857142857 L 280.875 202.71428571428572 L 361.125 170.65714285714287 L 441.375 139.54285714285714 L 521.625 122.57142857142856 L 601.875 126.34285714285713 L 682.125 148.97142857142856 L 762.375 185.74285714285713 L 842.625 220.62857142857143 L 922.875 237.6 L 932.875 237.6" fill="none"  stroke-opacity="0.000001" stroke="rgb(192,192,192)" stroke-width="22" visibility="visible"  style=""></path></g></svg>